<svg version="1.2" xmlns="http://www.w3.org/2000/svg" viewBox="0 0 32 32" width="32" height="32">
	<title>light-svg</title>
	<style>
		.s0 { fill: #ffffff } 
	</style>
	<filter id="f0">
		<feFlood flood-color="#ffffff" flood-opacity="1" />
		<feBlend mode="normal" in2="SourceGraphic"/>
		<feComposite in2="SourceAlpha" operator="in" />
	</filter>
	<g id="Layer_88" filter="url(#f0)">
		<path id="Layer" fill-rule="evenodd" class="s0" d="m18 27h-4q-0.4 0-0.8-0.2-0.3-0.1-0.6-0.4-0.3-0.3-0.4-0.6-0.2-0.4-0.2-0.8v-3.8q-1.4-0.6-2.5-1.6-1.1-1-2-2.3-0.8-1.2-1.1-2.7-0.4-1.4-0.4-2.9c0.1-1.3 0.3-2.5 0.8-3.7 0.6-1.1 1.3-2.2 2.2-3 0.8-0.9 1.9-1.6 3-2.2 1.2-0.5 2.4-0.7 3.7-0.8 2.3-0.1 4.6 0.7 6.4 2.1 1.9 1.4 3.1 3.4 3.7 5.7 0.5 2.3 0.2 4.6-0.9 6.7-1 2.1-2.8 3.7-4.9 4.7v3.8q0 0.4-0.2 0.8-0.1 0.3-0.4 0.6-0.3 0.3-0.6 0.4-0.4 0.2-0.8 0.2zm-2.3-23q-1.5 0.1-2.9 0.7-1.4 0.6-2.4 1.7-1.1 1-1.7 2.4-0.6 1.4-0.7 3 0 1.2 0.3 2.4 0.4 1.3 1.1 2.3 0.7 1.1 1.7 1.8 1 0.8 2.2 1.2 0.2 0.1 0.3 0.2 0.1 0.1 0.2 0.2 0.1 0.1 0.2 0.3 0 0.1 0 0.3v4.5h4v-4.5q0-0.2 0-0.3 0.1-0.2 0.2-0.3 0.1-0.1 0.2-0.2 0.1-0.1 0.3-0.2c1.3-0.4 2.4-1.2 3.3-2.2 0.9-1 1.5-2.3 1.8-3.6 0.3-1.3 0.2-2.7-0.1-4-0.4-1.3-1.2-2.5-2.1-3.4q-0.6-0.6-1.3-1-0.7-0.5-1.4-0.8-0.8-0.3-1.6-0.4-0.7-0.1-1.6-0.1z"/>
		<path id="Layer" class="s0" d="m19 30h-6q-0.4 0-0.7-0.3-0.3-0.3-0.3-0.7 0-0.4 0.3-0.7 0.3-0.3 0.7-0.3h6q0.4 0 0.7 0.3 0.3 0.3 0.3 0.7 0 0.4-0.3 0.7-0.3 0.3-0.7 0.3z"/>
		<path id="Layer" class="s0" d="m15.1 24.4q0.1 0.2 0.2 0.3 0.1 0.1 0.3 0.2 0.2 0.1 0.4 0.1h3q0 0.2-0.1 0.4-0.1 0.2-0.2 0.3-0.1 0.1-0.3 0.2-0.2 0.1-0.4 0.1h-4q-0.2 0-0.4-0.1-0.2-0.1-0.3-0.2-0.1-0.1-0.2-0.3-0.1-0.2-0.1-0.4v-4.5q-1.3-0.5-2.5-1.4-1.1-0.8-1.9-2-0.8-1.2-1.2-2.6-0.4-1.3-0.4-2.8c0.1-3.7 2.5-7.2 6.5-7.3-2.8 1.4-4.4 3.3-4.5 6.3q0 1.5 0.4 2.8 0.4 1.4 1.2 2.6 0.8 1.2 1.9 2 1.2 0.9 2.5 1.4v4.5q0 0.2 0.1 0.4z"/>
	</g>
</svg>